<?xml version="1.0" encoding="utf-8"?>
<!-- Generator: Adobe Illustrator 16.0.0, SVG Export Plug-In . SVG Version: 6.00 Build 0)  -->
<!DOCTYPE svg PUBLIC "-//W3C//DTD SVG 1.1//EN" "http://www.w3.org/Graphics/SVG/1.1/DTD/svg11.dtd">
<svg version="1.1" id="Layer_1" xmlns="http://www.w3.org/2000/svg" xmlns:xlink="http://www.w3.org/1999/xlink" x="0px" y="0px"
	 width="687.069px" height="189.019px" viewBox="0 0 687.069 189.019" enable-background="new 0 0 687.069 189.019"
	 xml:space="preserve">
<g>
	<path fill="#88AD70" d="M469.284,68.3v-0.03h-10.166h-13.875v49.001h13.875V99.724h10.094v0.01c8.463,0,15.348-7.133,15.348-15.9
		C484.559,75.352,477.731,68.447,469.284,68.3z M469.211,88.432v0.005h-10.094v-8.834h10.051c2.268,0.083,4.091,1.941,4.091,4.23
		C473.259,86.327,471.406,88.432,469.211,88.432z"/>
	<path fill="#88AD70" d="M511.784,68.3v-0.03h-10.166h-13.875v49.001h13.875V99.724h10.094v0.01c8.463,0,15.348-7.133,15.348-15.9
		C527.059,75.352,520.231,68.447,511.784,68.3z M511.711,88.432v0.005h-10.094v-8.834h10.051c2.268,0.083,4.091,1.941,4.091,4.23
		C515.759,86.327,513.906,88.432,511.711,88.432z"/>
	<polygon fill="#88AD70" points="544.555,105.355 544.555,68.27 530.68,68.27 530.68,117.271 543.451,117.271 544.555,117.271 
		567.368,117.271 567.368,105.355 	"/>
	<polygon fill="#88AD70" points="609.451,68.27 592.888,68.27 582.951,83.604 573.201,68.27 556.951,68.27 576.451,96.438 
		576.451,117.271 589.451,117.271 589.451,96.438 589.576,96.438 	"/>
	<path fill="#88AD70" d="M427.035,68.27v31.667c0,3.022-3.454,6-8.417,6s-8.249-2.791-8.249-6V68.27h-13.167v31.667
		c0,10.584,9.561,18.5,21.416,18.5s21.584-7.479,21.584-18.5V68.27H427.035z"/>
	<path fill="#88AD70" d="M158.2,70.257l-7.289,17.607l11.457-0.011l-22.276,27.927c2.63,0.963,5.471,1.49,8.435,1.49
		c13.531,0,24.5-10.969,24.5-24.5C173.026,82.676,166.919,74.01,158.2,70.257z"/>
	<g>
		<path fill="#F6F8F4" d="M622.873,39.374H398.096c-0.882-3.286-3.873-5.708-7.437-5.708h-5.251c-2.604,0-3.438,1.294-3.694,3.271
			h-2.848c-0.896,0-1.625,0.728-1.625,1.625s0.729,1.625,1.625,1.625h2.743c0.004,0.388,0.008,0.783,0.008,1.188
			c0,0.434-0.005,0.856-0.009,1.271h-2.742c-0.896,0-1.625,0.728-1.625,1.625s0.729,1.625,1.625,1.625h2.86
			c0.271,1.928,1.116,3.187,3.682,3.187h5.251c3.564,0,6.555-2.423,7.437-5.708h224.776c11.071,0,20.079,9.074,20.079,20.227v57.928
			c0,11.152-9.008,20.227-20.079,20.227H364.572c-0.401-5.084-2.297-8.902-7.704-8.902h-26.5c-5.408,0-7.429,3.818-7.862,8.902
			H64.197c-11.071,0-20.079-9.074-20.079-20.227V63.601c0-11.153,9.008-20.227,20.079-20.227h226.198
			c0.644,0.955,1.734,1.583,2.973,1.583h10.833c1.349,0,2.509-0.753,3.12-1.854c0.002,0,0.004,0,0.005,0h3.292
			c0.897,0,1.625-0.728,1.625-1.625s-0.728-1.625-1.625-1.625h-3.183c-0.573-1.216-1.801-2.063-3.234-2.063h-10.833
			c-1.238,0-2.329,0.628-2.974,1.583H64.197c-13.277,0-24.079,10.868-24.079,24.227v57.928c0,13.359,10.802,24.227,24.079,24.227
			H322.46c0.308,5.428,2.257,9.598,7.907,9.598h26.5c5.65,0,7.463-4.17,7.745-9.598h258.26c13.277,0,24.079-10.867,24.079-24.227
			V63.601C646.952,50.242,636.15,39.374,622.873,39.374z"/>
		<path fill="#F6F8F4" d="M105.284,68.3v-0.03H95.118H81.243v49.001h13.875V99.724h10.094v0.01c8.463,0,15.348-7.133,15.348-15.9
			C120.559,75.352,113.73,68.447,105.284,68.3z M105.211,88.432v0.005H95.118v-8.834h10.05c2.269,0.083,4.092,1.941,4.092,4.23
			C109.259,86.327,107.406,88.432,105.211,88.432z"/>
		<path fill="#F6F8F4" d="M337.368,117.271L322.35,97.896c4.875-2.666,8.209-7.965,8.209-14.062c0-8.481-6.829-15.387-15.275-15.533
			v-0.03h-10.166h-13.875v49.001h13.875V99.724h2.917h0.354l12.896,17.547H337.368z M305.118,79.603h10.05
			c2.269,0.083,4.092,1.941,4.092,4.23c0,2.493-1.854,4.599-4.048,4.599v0.005h-10.094V79.603z"/>
		<polygon fill="#F6F8F4" points="262.888,105.355 262.888,97.021 281.201,97.021 281.201,85.687 262.888,85.687 262.888,80.52 
			285.201,80.52 285.201,68.27 262.888,68.27 260.201,68.27 249.013,68.27 249.013,117.271 261.784,117.271 262.888,117.271 
			285.701,117.271 285.701,105.355 		"/>
		<polygon fill="#F6F8F4" points="232.284,68.27 224.784,95.159 217.285,68.27 217.284,68.27 202.118,68.27 202.117,68.27 
			194.617,95.159 187.118,68.27 171.951,68.27 188.284,117.271 188.45,117.271 200.784,117.271 200.95,117.271 209.701,91.019 
			218.451,117.271 218.617,117.271 230.951,117.271 231.117,117.271 247.451,68.27 		"/>
		<path fill="#F6F8F4" d="M146.743,95.062l-11.875-0.041l21.837-25.347c-2.559-0.905-5.311-1.403-8.179-1.403
			c-13.531,0-24.5,10.97-24.5,24.5c0,10.141,6.16,18.842,14.943,22.565L146.743,95.062z"/>
	</g>
	<path fill="#88AD70" d="M375.619,86.12l-0.009,0.031c-6.487-1.884-7.992-3.006-7.992-4.256c0-1.438,2.112-2.625,6.75-2.625
		c8.228,0,12.335,2.76,12.505,2.877l3.87,2.123V70.895c-0.713-0.531-5.5-3.625-16.375-3.625c-14.801,0-18.75,9.193-18.75,14.625
		c0,11.219,13.199,14.844,17.536,16.036l0.007-0.025c6.258,1.873,7.957,2.991,7.957,4.485c0,1.631-1.636,3.381-7.25,3.381
		c-8.59,0-19.185-5.459-19.25-5.5l0.063,12.938c0.383,0.248,6.923,4.563,19.188,4.563c14.123,0,19.25-9.189,19.25-15.367
		C393.118,91.048,379.947,87.338,375.619,86.12z"/>
</g>
</svg>
